<svg xmlns="http://www.w3.org/2000/svg" viewBox="0 0 64 64">
  <defs>
    <radialGradient id="tile" cx="32%" cy="18%" r="92%">
      <stop offset="0" stop-color="#2b313c"/>
      <stop offset="0.58" stop-color="#171b22"/>
      <stop offset="1" stop-color="#0b0d12"/>
    </radialGradient>
    <radialGradient id="gold" cx="32%" cy="18%" r="88%">
      <stop offset="0" stop-color="#fff4b5"/>
      <stop offset="0.36" stop-color="#f9dc6c"/>
      <stop offset="0.72" stop-color="#f4c84a"/>
      <stop offset="1" stop-color="#b77d0d"/>
    </radialGradient>
    <linearGradient id="black" x1="0.12" y1="0" x2="0.82" y2="1">
      <stop offset="0" stop-color="#3b4350"/>
      <stop offset="0.42" stop-color="#181c24"/>
      <stop offset="1" stop-color="#06080c"/>
    </linearGradient>
    <linearGradient id="letter" x1="0.16" y1="0.08" x2="0.88" y2="0.92">
      <stop offset="0" stop-color="#fff9d8"/>
      <stop offset="0.38" stop-color="#ffe88b"/>
      <stop offset="0.7" stop-color="#f4c84a"/>
      <stop offset="1" stop-color="#d39517"/>
    </linearGradient>
    <clipPath id="ball">
      <circle cx="32" cy="32" r="24"/>
    </clipPath>
    <filter id="ball-shadow" x="-30%" y="-30%" width="160%" height="180%">
      <feDropShadow dx="0" dy="3" stdDeviation="2.5" flood-color="#000" flood-opacity="0.58"/>
    </filter>
    <filter id="letter-glow" x="-60%" y="-60%" width="220%" height="220%">
      <feDropShadow dx="0" dy="1" stdDeviation="1.2" flood-color="#ffe681" flood-opacity="0.48"/>
    </filter>
  </defs>

  <rect x="1" y="1" width="62" height="62" rx="14" fill="url(#tile)" stroke="#343d4b" stroke-width="1.5"/>

  <g filter="url(#ball-shadow)">
    <g clip-path="url(#ball)">
      <path d="M8 32a24 24 0 0 1 48 0H8Z" fill="url(#black)"/>
      <path d="M8 32a24 24 0 0 0 48 0H8Z" fill="url(#gold)"/>
      <path d="M13 23c7-10 23-14 35-5" fill="none" stroke="#fff" stroke-width="1.8" stroke-linecap="round" opacity="0.16"/>
      <path d="M15 44c8 8 22 9 32 1" fill="none" stroke="#fff5bd" stroke-width="1.4" stroke-linecap="round" opacity="0.24"/>
    </g>
    <circle cx="32" cy="32" r="24" fill="none" stroke="#f4c84a" stroke-width="1.4" opacity="0.82"/>
    <path d="M8.5 32h47" stroke="#0d1016" stroke-width="3"/>
  </g>

  <g fill="none" stroke-linecap="round" stroke-linejoin="round" filter="url(#letter-glow)">
    <path d="M22 16v32M23 33l20-17M29 28l15 20" stroke="#090b0f" stroke-width="8"/>
    <path d="M22 16v32M23 33l20-17M29 28l15 20" stroke="url(#letter)" stroke-width="4"/>
    <path d="M20.8 17.5v13" stroke="#fff" stroke-width="1" opacity="0.55"/>
  </g>
</svg>
